<svg xmlns="http://www.w3.org/2000/svg" width="400" height="241.08844"><defs><linearGradient x1=".014" y1="8.48445" x2="375.21858" y2="-31.91025" gradientUnits="userSpaceOnUse" id="b"><stop offset="0" stop-color="#54bcfe"/><stop offset=".4" stop-color="#285ff6"/><stop offset="1" stop-color="#3c68f5"/></linearGradient><clipPath id="a"><path fill="none" d="M0 0h400v241.08844H0z"/></clipPath></defs><g clip-path="url(#a)" fill="none" stroke-miterlimit="10" font-family="none" font-weight="none" font-size="none" text-anchor="none" style="mix-blend-mode:normal"><path d="M202.37 8.874c-.685.243-1.84.89-2.566 1.439-1.248.941-2.091 1.975-6.434 7.891-1.95 2.655-6.01 8.155-12.816 17.36-2.451 3.315-5.669 7.709-7.152 9.765-1.483 2.055-3.521 4.822-4.529 6.148-1.008 1.326-3.2 4.31-4.871 6.63-1.672 2.321-4.988 6.878-7.37 10.127-2.382 3.249-5.799 7.969-7.594 10.488-1.795 2.52-4.303 5.992-5.573 7.716-1.271 1.724-3.058 4.219-3.971 5.545-1.754 2.546-2.676 3.847-10.515 14.828-2.698 3.78-6.438 9.042-8.312 11.694-1.875 2.652-5.737 8.077-8.585 12.056-2.847 3.978-5.92 8.318-6.829 9.644-.909 1.326-2.432 3.496-3.385 4.822-1.542 2.148-6.434 9.053-11.785 16.637-1.029 1.458-2.633 3.683-3.564 4.942-10.782 14.596-10.9 16.208-2.068 28.044 1.899 2.545 4.262 5.749 5.251 7.121 8.243 11.427 11.681 15.675 13.601 16.8 3.008 1.763 3.559 1.805 26.896 2.051 11.338.12 25.226.335 30.862.478 17.977.457 17.695.567 25.504-9.943 2.392-3.219 6.048-8.131 8.126-10.916 2.077-2.785 4.824-6.528 6.104-8.318 1.28-1.79 4.609-6.313 7.397-10.05 2.788-3.737 6.308-8.511 7.823-10.609 1.515-2.098 4.129-5.658 5.809-7.913 9.27-12.438 21.883-29.808 33.58-46.247 2.093-2.943 5.129-7.194 6.746-9.449 6.37-8.881 7.563-11.035 7.822-14.118.34-4.062-.226-5.066-11.156-19.792-3.705-4.991-7.984-10.78-9.509-12.864-6.56-8.964-24.746-33.611-31.731-43.005-5.798-7.796-7.636-9.259-11.789-9.38-1.619-.048-2.487.049-3.417.378M18.605 85.964c-4.751 1.031-7.323 5.334-5.831 9.756.937 2.776.728 2.48 20.121 28.47 2.926 3.923 8.522 11.445 12.434 16.716 13.193 17.779 13.743 18.421 16.612 19.395 3.581 1.215 5.628-.158 11.805-7.92 3.967-4.985 7.214-9.237 17.093-22.387 1.359-1.81 3.592-4.756 4.962-6.546 4.303-5.624 11.957-16.528 12.778-18.204 1.831-3.736 1.128-7.712-1.767-10.006-2.231-1.767-4.648-2.343-12.659-3.019-4.208-.356-7.341-.663-16.998-1.666-1.923-.199-5.503-.532-7.957-.739-6.659-.561-14.024-1.253-19.168-1.801-2.519-.268-8.867-.813-14.105-1.21-5.238-.398-10.663-.829-12.055-.958-3.158-.293-3.392-.288-5.265.119m347.64 1.102c-5.089.45-17.836 1.695-22.062 2.155-2.387.26-7.432.746-11.211 1.081-3.78.335-8.282.766-10.006.958-1.724.193-6.281.625-10.127.961-20.327 1.777-19.661 1.441-29.137 14.701-1.33 1.862-3.624 5.013-5.098 7.002-4.615 6.231-17.121 23.761-25.286 35.443-5.946 8.509-6.521 9.324-9.952 14.105-1.855 2.586-4.267 6.004-5.361 7.595-1.093 1.591-3.113 4.466-4.489 6.389s-4.291 6.1-6.479 9.283c-2.187 3.183-5.172 7.468-6.632 9.524-4.977 7.007-8.733 12.701-9.32 14.127-1.651 4.018.369 8.267 4.403 9.262 2.44.602 67.465 1.293 70.884.753 5.368-.847 5.239-.708 23.804-25.751 1.851-2.497 5.569-7.492 8.261-11.102 2.693-3.609 6.278-8.458 7.967-10.776 1.689-2.318 4.328-5.875 5.864-7.904 1.535-2.03 4.199-5.644 5.919-8.031 1.719-2.387 4.58-6.347 6.357-8.8 1.776-2.453 4.908-6.848 6.96-9.765 2.051-2.917 4.878-6.893 6.282-8.835 1.403-1.942 3.745-5.242 5.204-7.335 1.458-2.092 3.512-5.006 4.564-6.475 13.909-19.43 14.7-21.002 12.551-24.941-1.899-3.481-5.331-4.378-13.86-3.624M3.251 240.456c-.19.467-.042.755.318.618.123-.047.142-.302.041-.568-.17-.449-.195-.453-.359-.05" fill="url(#b)"/></g></svg>