<svg xmlns="http://www.w3.org/2000/svg" width="400" height="241.1"><defs><linearGradient id="b" x1="0" x2="375.2" y1="8.5" y2="-31.9" gradientUnits="userSpaceOnUse"><stop offset="0" stop-color="#54bcfe"/><stop offset=".4" stop-color="#285ff6"/><stop offset="1" stop-color="#3c68f5"/></linearGradient><clipPath id="a"><path fill="none" d="M0 0h400v241H0z"/></clipPath></defs><g fill="none" stroke-miterlimit="10" clip-path="url(#a)" font-family="none" font-size="none" font-weight="none" style="mix-blend-mode:normal" text-anchor="none"><path fill="url(#b)" d="M202.4 8.9c-.7.2-1.9.9-2.6 1.4-1.2 1-2 2-6.4 7.9a8667.5 8667.5 0 0 1-29.4 40 1857.8 1857.8 0 0 1-15 20.5 742 742 0 0 1-9.5 13.3 1064.7 1064.7 0 0 1-18.8 26.5 3173.2 3173.2 0 0 1-18.8 26.5 3833.8 3833.8 0 0 0-15.4 21.6c-10.8 14.6-10.9 16.2-2 28l5.2 7.2a85.3 85.3 0 0 0 13.6 16.8c3 1.7 3.6 1.8 26.9 2l30.9.5c18 .5 17.7.6 25.5-10a8472.9 8472.9 0 0 1 21.6-29.2 1101.6 1101.6 0 0 0 13.6-18.5 2803.7 2803.7 0 0 0 40.3-55.7c6.4-9 7.6-11 7.9-14.2.3-4-.3-5-11.2-19.8L249.3 61l-31.7-43c-5.8-7.8-7.7-9.3-11.8-9.4a8 8 0 0 0-3.4.4M18.6 86c-4.7 1-7.3 5.4-5.8 9.8 1 2.8.7 2.5 20 28.5L45.3 141c13.2 17.8 13.8 18.4 16.6 19.4 3.6 1.2 5.7-.2 11.8-8a958.4 958.4 0 0 0 34.9-47c1.8-3.8 1.1-7.8-1.8-10-2.2-1.8-4.6-2.4-12.6-3a815 815 0 0 1-25-2.5c-6.7-.5-14-1.2-19.2-1.8a629.8 629.8 0 0 0-31.4-2m347.6 1a1743.8 1743.8 0 0 0-33.2 3.3 613.5 613.5 0 0 0-20.2 2c-20.3 1.7-19.6 1.4-29.1 14.6a765.2 765.2 0 0 0-63.3 89.3c-5 7-8.7 12.8-9.3 14.2-1.7 4 .4 8.3 4.4 9.3 2.4.6 67.5 1.2 70.9.7 5.3-.8 5.2-.7 23.8-25.7a6172.6 6172.6 0 0 1 28-37.9 4694.6 4694.6 0 0 1 19.6-27.4 646.4 646.4 0 0 0 9.8-13.8c13.9-19.4 14.7-21 12.5-25-1.9-3.4-5.3-4.3-13.9-3.5M3.2 240.5c-.1.4 0 .7.4.6v-.6c-.2-.4-.2-.4-.3 0"/></g></svg>