<?xml version="1.0" standalone="no"?>
<!DOCTYPE svg PUBLIC "-//W3C//DTD SVG 20010904//EN"
 "http://www.w3.org/TR/2001/REC-SVG-20010904/DTD/svg10.dtd">
<svg version="1.0" xmlns="http://www.w3.org/2000/svg"
 width="236.000000pt" height="236.000000pt" viewBox="0 0 236.000000 236.000000"
 preserveAspectRatio="xMidYMid meet">

<g transform="translate(0.000000,236.000000) scale(0.100000,-0.100000)"
fill="#000000" stroke="none">
<path d="M1335 1996 c-40 -17 -85 -71 -85 -101 0 -12 -6 -27 -13 -33 -7 -6
-158 -64 -337 -130 -179 -66 -355 -131 -392 -145 l-66 -25 -24 25 c-110 118
-327 66 -369 -89 -37 -139 63 -272 205 -272 34 0 75 3 91 7 28 7 44 -4 275
-206 l244 -213 1 -81 1 -81 -82 -43 c-77 -41 -83 -43 -109 -29 -32 17 -92 18
-124 1 -61 -33 -81 -136 -36 -189 72 -86 205 -53 223 56 7 43 9 45 99 94 86
46 93 48 115 35 78 -50 198 -13 243 74 22 41 19 115 -6 167 l-22 43 50 107 49
107 45 5 c59 8 96 28 132 72 56 70 47 169 -23 232 -86 77 -226 53 -274 -47
-30 -64 -17 -154 31 -209 13 -14 9 -28 -35 -120 l-49 -104 -55 0 c-36 0 -64
-6 -82 -17 -26 -18 -28 -17 -54 5 -194 164 -462 404 -462 415 0 8 7 28 16 45
8 16 17 53 18 80 2 32 8 53 18 59 8 4 186 71 396 149 l381 140 37 -25 c42 -29
100 -33 143 -11 27 14 31 12 207 -101 98 -63 185 -121 193 -128 11 -11 11 -20
-3 -61 -9 -26 -16 -68 -16 -94 0 -58 40 -141 86 -178 19 -15 34 -31 34 -37 0
-5 -39 -69 -87 -142 -84 -126 -90 -133 -121 -133 -81 0 -142 -61 -142 -140 0
-57 30 -104 80 -124 51 -20 73 -20 117 1 54 25 75 66 68 133 -3 30 -6 66 -7
80 -2 17 26 68 87 161 l89 137 52 5 c225 23 313 285 144 430 -22 19 -61 40
-86 47 -53 15 -139 8 -183 -15 -37 -19 -8 -33 -281 144 l-160 103 0 40 c0 96
-100 163 -185 124z"/>
<path d="M787 1386 c-9 -7 -22 -27 -28 -45 -9 -25 -8 -36 5 -57 34 -51 98 -51
132 0 42 65 -47 149 -109 102z"/>
<path d="M301 894 c-28 -35 -26 -69 4 -99 49 -50 129 -20 129 48 0 49 -27 77
-75 77 -29 0 -42 -6 -58 -26z"/>
<path d="M2065 845 c-31 -30 -32 -66 -2 -101 46 -53 130 -23 130 46 0 69 -80
104 -128 55z"/>
</g>
</svg>
